<svg xmlns="http://www.w3.org/2000/svg" width="64" height="64" viewBox="0 0 64 64" role="img" aria-label="Workout App Icon Dumbbell">
  <defs>
    <linearGradient id="g" x1="12" y1="12" x2="52" y2="52" gradientUnits="userSpaceOnUse">
      <stop offset="0" stop-color="#7C3AED"/>
      <stop offset="0.6" stop-color="#06B6D4"/>
      <stop offset="1" stop-color="#22C55E"/>
    </linearGradient>
  </defs>

  <circle cx="32" cy="32" r="24" fill="#0B1220"/>
  <circle cx="32" cy="32" r="24" fill="none" stroke="url(#g)" stroke-width="3" opacity="0.9"/>

  <g fill="none" stroke-linecap="round" stroke-linejoin="round">
    <path d="M23 34h18" stroke="#E5E7EB" stroke-opacity="0.9" stroke-width="4"/>
    <path d="M19.5 28v12" stroke="url(#g)" stroke-width="5"/>
    <path d="M44.5 28v12" stroke="url(#g)" stroke-width="5"/>
    <path d="M16 30v8" stroke="#E5E7EB" stroke-opacity="0.85" stroke-width="4"/>
    <path d="M48 30v8" stroke="#E5E7EB" stroke-opacity="0.85" stroke-width="4"/>
  </g>

  <!-- small check -->
  <path d="M38.2 20.6c.6-.6 1.6-.6 2.2 0 .6.6.6 1.6 0 2.2l-4.6 4.6c-.6.6-1.6.6-2.2 0l-2.2-2.2c-.6-.6-.6-1.6 0-2.2.6-.6 1.6-.6 2.2 0l1.1 1.1 3.5-3.5z"
        fill="url(#g)"/>
</svg>
